<?xml version="1.0" encoding="UTF-8" standalone="no"?>
<!-- Created with Inkscape (http://www.inkscape.org/) -->

<svg
   width="53.297001mm"
   height="53.297001mm"
   viewBox="0 0 53.297001 53.297001"
   version="1.1"
   id="svg1"
   inkscape:version="1.4 (e7c3feb100, 2024-10-09)"
   sodipodi:docname="FavIcon.svg"
   xml:space="preserve"
   inkscape:export-filename="FavIcon.png"
   inkscape:export-xdpi="96"
   inkscape:export-ydpi="96"
   xmlns:inkscape="http://www.inkscape.org/namespaces/inkscape"
   xmlns:sodipodi="http://sodipodi.sourceforge.net/DTD/sodipodi-0.dtd"
   xmlns="http://www.w3.org/2000/svg"
   xmlns:svg="http://www.w3.org/2000/svg"><sodipodi:namedview
     id="namedview1"
     pagecolor="#505050"
     bordercolor="#ffffff"
     borderopacity="1"
     inkscape:showpageshadow="0"
     inkscape:pageopacity="0"
     inkscape:pagecheckerboard="1"
     inkscape:deskcolor="#505050"
     inkscape:document-units="mm"
     inkscape:zoom="0.98268796"
     inkscape:cx="-54.951319"
     inkscape:cy="95.656001"
     inkscape:window-width="1920"
     inkscape:window-height="998"
     inkscape:window-x="0"
     inkscape:window-y="0"
     inkscape:window-maximized="1"
     inkscape:current-layer="layer1" /><defs
     id="defs1" /><g
     inkscape:label="Ebene 1"
     inkscape:groupmode="layer"
     id="layer1"><path
       id="path2"
       style="fill:#1d7000;fill-opacity:1;stroke-width:0.444667"
       d="M 14.160026,25.927864 C 8.9661485,26.045481 4.060262,29.479547 2.1069203,34.284858 0.35235435,38.437454 0.79371641,43.475502 3.3455729,47.211067 6.1752044,51.581838 11.670268,53.997261 16.803968,53.126562 22.800849,52.349879 27.850512,47.069155 28.34746,41.041401 28.76344,37.289887 27.56728,33.40071 25.053711,30.575301 22.359963,27.478274 18.26698,25.702662 14.160026,25.927864 Z m 0.583985,3.613281 c 2.053881,-0.04375 4.055623,0.631274 5.694019,1.761869 2.841791,1.887342 4.518733,5.37234 4.333493,8.706376 -0.06264,3.767284 -2.512734,7.313685 -5.971285,8.780298 -2.551193,1.149369 -5.611793,1.187957 -8.157743,-0.0016 C 6.816596,47.12733 4.2740047,42.902596 4.7148126,38.7363 c 0.3040918,-4.526835 4.0748071,-8.513418 8.5679204,-9.104071 0.484122,-0.06531 0.973181,-0.08338 1.461278,-0.09108 z m -0.320313,3.011719 c -0.62112,0.06369 -1.16549,0.596189 -1.449219,1.084375 0,2.253776 10e-7,4.507552 0,6.761328 1.643356,1.575714 3.150978,3.303954 4.902344,4.759766 1.219103,0.746533 2.888993,-0.542706 2.611328,-1.904297 -0.302927,-1.073221 -1.366673,-1.698263 -2.049514,-2.522929 -0.642584,-0.648473 -1.290373,-1.298526 -1.934861,-1.947774 0,-1.748698 0,-3.497396 0,-5.246094 -0.524427,-0.63307 -1.206931,-1.160523 -2.080078,-0.984375 z" /><path
       id="path1"
       style="fill:#aaaaaa;fill-opacity:1"
       d="M 22.307119,1.2149727e-4 C 20.631985,-0.0153829 19.049674,1.4542792 19.047886,3.6820673 l -10e-4,1.2567708 h -1.667632 c -2.159077,0 -3.798723,0.9531338 -4.644161,2.6995768 C 12.188741,8.7669433 12.1694,9.2262209 12.16872,23.801253 a 16.693159,16.693159 0 0 1 1.352889,-0.09663 16.693159,16.693159 0 0 1 1.556494,0.07493 V 12.347172 h 16.933333 16.933333 v 13.911295 13.910779 l -0.773079,0.773596 -0.773596,0.77308 H 32.011436 30.120595 a 16.693159,16.693159 0 0 1 -0.474389,2.891296 c 0.80562,0.0014 1.332941,0.0056 2.232938,0.0062 9.928137,0.0066 15.698672,-0.08813 16.345256,-0.267684 1.355974,-0.376557 2.714311,-1.628172 3.22616,-2.972945 0.374304,-0.983398 0.414452,-2.967541 0.347782,-17.139005 L 51.722894,8.2068557 50.996841,7.109765 C 50.091024,5.741293 48.997799,5.15931 46.960394,4.961059 L 45.372894,4.8065464 45.239052,3.3048293 C 45.081964,1.5423978 44.363445,0.59601108 42.835065,0.13809758 40.807782,-0.46929042 38.892033,1.3162234 38.89112,3.8143589 l -5.17e-4,1.1244792 H 37.170811 35.451019 V 3.8722365 c 0,-2.2810285 -1.283764,-3.81630445 -3.191536,-3.81630445 -1.974138,0 -2.928431,0.99844555 -3.150195,3.29540605 l -0.14056,1.4552083 H 27.248936 25.529144 L 25.395302,3.3006952 C 25.289608,2.1145677 25.10107,1.6283297 24.509052,1.0103957 23.848769,0.32120935 23.068544,0.00716896 22.307119,1.2149727e-4 Z M 21.981041,1.7664219 c 0.524559,-0.03783 1.126604,0.1716803 1.416451,0.585494 0.322298,0.460148 0.411861,1.3479784 0.411861,4.0819214 0,3.4592697 -0.0069,3.4991797 -0.697115,4.0421307 -0.848408,0.667357 -0.943655,0.671901 -1.678968,0.07648 -0.555209,-0.449614 -0.581737,-0.653809 -0.549837,-4.2834595 0.02029,-2.308584 0.146965,-3.9476698 0.321428,-4.1578858 0.174296,-0.2100142 0.461444,-0.3219839 0.77618,-0.3446818 z m 19.84375,0 c 0.524559,-0.03783 1.126604,0.1716803 1.416451,0.585494 0.318778,0.455116 0.411861,1.3264303 0.411861,3.8540283 0,1.796198 -0.121412,3.493206 -0.270268,3.7713458 -0.532816,0.995576 -1.95776,1.142606 -2.50424,0.258383 -0.30193,-0.4885337 -0.150264,-7.7386563 0.170016,-8.1245693 0.174296,-0.2100142 0.461444,-0.3219839 0.77618,-0.3446818 z m -9.761678,0.01757 c 0.317596,-0.0272 0.657613,0.057525 1.024226,0.2537313 0.470503,0.251804 0.511597,0.5891479 0.511597,4.1806234 0,2.68563 -0.09902,4.0057594 -0.317293,4.2240314 -0.474461,0.474462 -1.657642,0.383074 -2.154907,-0.166398 -0.361993,-0.3999951 -0.438217,-1.1038403 -0.438217,-4.0602173 0,-3.128527 0.06092,-3.6306384 0.484209,-4.0137084 0.277788,-0.2513945 0.572788,-0.3908623 0.890385,-0.4180624 z M 17.988519,17.903422 v 2.522843 2.522843 l 2.71198,-0.07545 2.711979,-0.07545 0.07648,-2.447396 0.07596,-2.447395 h -2.787943 z m 7.408334,0 v 2.513541 2.513542 h 2.778125 2.778125 v -2.513542 -2.513541 h -2.778125 z m 7.672916,0 v 2.522843 2.522843 l 2.71198,-0.07545 2.711979,-0.07545 0.07648,-2.447396 0.07596,-2.447395 h -2.787943 z m 7.408334,0 v 2.513541 2.513542 h 2.778125 2.778125 v -2.513542 -2.513541 h -2.778125 z m -7.408334,6.595979 v 2.522844 2.522843 h 2.788461 2.787943 l -0.07596,-2.447396 -0.07648,-2.447395 -2.711979,-0.07545 z m -14.416691,0.0186 a 16.693159,16.693159 0 0 1 4.83278,2.487703 l -0.07338,-2.355411 -2.711979,-0.07545 z m 6.743775,0 v 2.513542 1.637626 a 16.693159,16.693159 0 0 1 0.802018,0.875915 h 1.976107 2.778125 v -2.513541 -2.513542 h -2.778125 z m 15.08125,0 v 2.513542 2.513541 h 2.778125 2.778125 v -2.513541 -2.513542 h -2.778125 z m -12.903605,6.879167 a 16.693159,16.693159 0 0 1 2.089795,4.7625 h 1.28881 v -2.38125 -2.38125 h -2.778125 z m 5.495271,0 v 2.38125 2.38125 h 2.778125 2.778125 v -2.38125 -2.38125 h -2.778125 z m 7.408334,0 v 2.38125 2.38125 h 2.778125 2.778125 v -2.38125 -2.38125 h -2.778125 z" /></g></svg>
